<svg xmlns="http://www.w3.org/2000/svg" width="1024" height="1024" viewBox="0 0 1024 1024">
  <defs>
    <linearGradient id="bg" x1="0" y1="0" x2="1" y2="1">
      <stop offset="0" stop-color="#11072a"/>
      <stop offset="1" stop-color="#05070d"/>
    </linearGradient>
    <linearGradient id="accent" x1="0.08" y1="0.05" x2="0.92" y2="0.95">
      <stop offset="0" stop-color="#b84dff"/>
      <stop offset="0.5" stop-color="#8a2eff"/>
      <stop offset="1" stop-color="#2e8bff"/>
    </linearGradient>
    <filter id="glow" x="-50%" y="-50%" width="200%" height="200%">
      <feGaussianBlur stdDeviation="24" result="blur"/>
      <feMerge><feMergeNode in="blur"/><feMergeNode in="SourceGraphic"/></feMerge>
    </filter>
  </defs>
  <rect width="1024" height="1024" rx="230" fill="url(#bg)"/>
  <rect x="48" y="48" width="928" height="928" rx="195" fill="none" stroke="#ffffff" stroke-opacity=".08" stroke-width="5"/>
  <circle cx="512" cy="512" r="340" fill="none" stroke="url(#accent)" stroke-width="34" filter="url(#glow)"/>
  <path d="M324 438c32-116 129-188 244-188 77 0 143 28 194 80l-68 66c-32-32-75-49-126-49-75 0-137 43-164 107h244l-66 88H321c-3-34-2-69 3-104Z" fill="#fff"/>
  <path d="M702 440h112l-58-151-42 36-68 63 56 52Z" fill="url(#accent)"/>
  <path d="M310 583h226l-61 82h-153c26 66 90 112 164 112 54 0 100-18 135-55l70 65c-52 55-121 86-205 86-121 0-224-76-257-184-12-37-13-74-5-106h86Z" fill="#fff"/>
  <path d="M518 565h184v80H559v53h120v78H481V645h-77v-80h114Z" fill="#fff"/>
  <circle cx="770" cy="744" r="16" fill="#2e8bff"/>
</svg>
